<svg width="97" height="16" viewBox="0 0 97 16" fill="none" xmlns="http://www.w3.org/2000/svg">
<path d="M64.9215 12.6914H56.6326V9.20914H64.2534C64.4554 9.20914 64.6205 9.03163 64.6205 8.81225V6.88363C64.6205 6.66424 64.4554 6.48673 64.2534 6.48673H56.6326V3.29763H64.7506C64.9526 3.29763 65.1176 3.12013 65.1176 2.90074V0.972117C65.1176 0.752729 64.9526 0.575225 64.7506 0.575225H54.3254C54.1234 0.575225 53.9583 0.752729 53.9583 0.972117V15.0149C53.9583 15.2343 54.1234 15.4118 54.3254 15.4118H64.9234C65.1254 15.4118 65.2905 15.2343 65.2905 15.0149V13.0863C65.2885 12.8689 65.1254 12.6914 64.9215 12.6914ZM30.0647 0.575225H27.843C27.641 0.575225 27.4759 0.752729 27.4759 0.972117V15.0149C27.4759 15.2343 27.641 15.4118 27.843 15.4118H30.0647C30.2667 15.4118 30.4318 15.2343 30.4318 15.0149V0.972117C30.4318 0.752729 30.2686 0.575225 30.0647 0.575225ZM47.2892 7.91076C46.6192 7.37426 45.8598 7.08108 44.3838 6.78789L41.76 6.28131C40.5715 6.04796 40.2432 5.93029 39.8509 5.68696C39.4586 5.46359 39.2334 5.08464 39.2334 4.65185C39.2334 3.55491 40.4705 2.81697 42.3116 2.81697C43.4225 2.81697 44.2459 3.06628 44.8324 3.57885C45.2441 3.93186 45.4112 4.27092 45.4733 4.9231C45.483 5.02481 45.5219 5.12054 45.5898 5.19434L45.6928 5.30603C45.7685 5.3878 45.8714 5.43567 45.9783 5.43567H47.7009C47.8349 5.43567 47.9592 5.36387 48.033 5.2442L48.0913 5.15046C48.1456 5.0647 48.1709 4.957 48.1592 4.85329C47.9864 3.17597 47.5455 2.2326 46.5628 1.41688C45.5957 0.623091 44.1721 0.220215 42.3291 0.220215C38.7692 0.220215 36.5571 1.9833 36.5571 4.82138C36.5571 6.31322 37.2893 7.65747 38.4274 8.24782C39.0566 8.56294 40.0568 8.8641 41.4085 9.14332L43.8361 9.58609C45.619 9.93312 45.8656 10.5334 45.8656 11.1318C45.8656 12.3943 44.6343 13.1781 42.6534 13.1781C41.2473 13.1781 40.2141 12.845 39.5752 12.1789C39.146 11.756 38.9789 11.3053 38.9479 10.4397C38.944 10.338 38.909 10.2383 38.8469 10.1605L38.7575 10.0508C38.6818 9.95705 38.5711 9.9052 38.4565 9.9052H36.6756C36.5513 9.9052 36.4348 9.96702 36.3591 10.0727L36.2872 10.1725C36.227 10.2562 36.1959 10.3619 36.2017 10.4656C36.2736 12.0253 36.53 12.8689 37.1942 13.7545C38.204 15.0947 40.016 15.7728 42.5796 15.7728C44.2673 15.7728 45.4442 15.4796 46.5104 14.7936C47.831 13.9619 48.6195 12.5139 48.6195 10.9184C48.6195 9.67584 48.134 8.5789 47.2892 7.91076ZM96.632 0.575225H94.2588C94.1403 0.575225 94.0277 0.637052 93.9597 0.742757L90.0969 6.66823L86.269 0.744752C86.201 0.639047 86.0884 0.575225 85.968 0.575225H83.4607C83.1597 0.575225 82.9869 0.948184 83.1655 1.20946L88.7083 9.31285V15.0169C88.7083 15.2363 88.8734 15.4138 89.0753 15.4138H91.0155C91.2175 15.4138 91.3826 15.2363 91.3826 15.0169V9.31285L96.9253 1.20946C97.1079 0.948184 96.935 0.575225 96.632 0.575225ZM81.6293 12.6914H74.0086V0.972117C74.0086 0.752729 73.8435 0.575225 73.6415 0.575225H71.7013C71.4994 0.575225 71.3343 0.752729 71.3343 0.972117V15.0149C71.3343 15.2343 71.4994 15.4118 71.7013 15.4118H81.6293C81.8313 15.4118 81.9964 15.2343 81.9964 15.0149V13.0863C81.9964 12.8689 81.8333 12.6914 81.6293 12.6914ZM22.2769 0.575225H19.9347C19.7386 0.575225 19.5288 0.740763 19.4686 0.942201L16.3185 11.2774C16.2564 11.4788 16.1574 11.4788 16.0952 11.2774L12.9451 0.940206C12.883 0.738768 12.6732 0.57323 12.4771 0.57323H10.0611C9.86496 0.57323 9.65521 0.738768 9.59501 0.940206L6.44493 11.2774C6.38278 11.4788 6.28373 11.4788 6.22158 11.2774L3.0715 0.940206C3.00936 0.738768 2.79961 0.57323 2.6054 0.57323H0.261287C0.0651356 0.57323 -0.0436219 0.738768 0.0165832 0.940206L4.31639 15.0469C4.37853 15.2483 4.58828 15.4138 4.78249 15.4138H7.87819C8.07434 15.4138 8.28409 15.2483 8.3443 15.0469L11.1545 5.82458C11.2167 5.62314 11.3157 5.62314 11.3779 5.82458L14.1881 15.0469C14.2502 15.2483 14.46 15.4138 14.6542 15.4138H17.7499C17.946 15.4138 18.1558 15.2483 18.216 15.0469L22.5158 0.940206C22.5818 0.738768 22.4731 0.575225 22.2769 0.575225Z" fill="#0055B8"/>
</svg>
